<svg xmlns="http://www.w3.org/2000/svg" xmlns:svg="http://www.w3.org/2000/svg" id="svg8" width="512" height="512" version="1.1" viewBox="0 0 135.467 135.467"><metadata id="metadata5"/><g id="layer1" transform="translate(21.700237,-922.51954)"><path style="opacity:.33;fill:#0e9798;fill-opacity:.99607843;stroke:none;stroke-width:1.16275263;stroke-linecap:round;stroke-linejoin:round;stroke-miterlimit:4;stroke-dasharray:none;stroke-dashoffset:0;stroke-opacity:.1415525" id="path1578" d="m 99.570249,1043.79 c -18.928242,18.9283 -88.146063,18.9283 -107.0743048,0 -18.9282422,-18.9282 -18.9282422,-88.14604 -4e-7,-107.07428 18.9282412,-18.92825 88.1460632,-18.92825 107.0743042,0 18.928242,18.92824 18.928242,88.14608 10e-7,107.07428 z"/><circle id="circle1545" cx="-591.701" cy="139.725" r="0" style="opacity:.67299996;fill:#aaf;fill-opacity:.30136988;stroke:#000;stroke-width:.30404934;stroke-miterlimit:4;stroke-dasharray:none;stroke-opacity:1"/><circle style="opacity:.67299996;fill:#aaf;fill-opacity:.30136988;stroke:#000;stroke-width:.30404934;stroke-miterlimit:4;stroke-dasharray:none;stroke-opacity:1" id="ellipse1617" cx="-993.513" cy="168.136" r="0"/><circle id="ellipse1906" cx="-958.144" cy="733.208" r="0" style="opacity:.67299996;fill:none;fill-opacity:.30136988;stroke:#000;stroke-width:.79374999;stroke-miterlimit:4;stroke-dasharray:none;stroke-opacity:1"/><circle id="ellipse1926" cx="-1500.972" cy="582.331" r="0" style="opacity:.67299996;fill:none;fill-opacity:.30136988;stroke:#000;stroke-width:.79374999;stroke-miterlimit:4;stroke-dasharray:none;stroke-opacity:1"/><circle id="ellipse1946" cx="-958.144" cy="255.978" r="0" style="opacity:.67299996;fill:none;fill-opacity:.30136988;stroke:#000;stroke-width:.79374999;stroke-miterlimit:4;stroke-dasharray:none;stroke-opacity:1"/><g id="g4554" transform="matrix(0.58796298,0,0,0.58796298,-29.226163,980.84547)"><g id="g10"><polygon id="polygon4" points="56 -56 200 -56 176 -8 80 -8" class="st0" style="fill:#41cd5f;fill-opacity:.94117647"/><rect id="rect6" width="144" height="96" x="56" y="-8" class="st1" style="fill:#ffd80f;fill-opacity:.94117647"/><polygon id="polygon8" points="128 88 176 -8 80 -8" class="st2" style="fill:#00939f;fill-opacity:.94117647"/></g></g></g><style id="style2" type="text/css">.st0{fill:#212121}.st1{fill:#ff80ab}.st2{fill:#ff1744}</style></svg>