<svg xmlns="http://www.w3.org/2000/svg" xmlns:svg="http://www.w3.org/2000/svg" id="svg8" width="20" height="20" version="1.1" viewBox="0 0 5.292 5.292"><metadata id="metadata5"/><g id="layer1" transform="translate(0,-291.70835)"><g id="g847" transform="matrix(0.05207439,0,0,0.05207453,-0.90125164,282.41203)"><g id="g851"><g id="g1059" transform="matrix(1.9986219,0,0,1.9986185,17.324484,-313.52314)"><path style="opacity:1;fill:none;fill-opacity:.49382719;stroke:#ffffff00;stroke-width:.07000433;stroke-linecap:round;stroke-linejoin:round;stroke-miterlimit:4;stroke-dasharray:none;stroke-dashoffset:0;stroke-opacity:1;paint-order:stroke fill markers" id="path883" d="M 25.399999,271.60002 -8.0000008e-7,246.20002 H 50.799999 Z"/><path id="path880" d="m 25.399999,271.60002 25.399999,25.4 H 0 Z" style="opacity:1;fill:none;fill-opacity:.49382719;stroke:#ffffff00;stroke-width:.07000433;stroke-linecap:round;stroke-linejoin:round;stroke-miterlimit:4;stroke-dasharray:none;stroke-dashoffset:0;stroke-opacity:1;paint-order:stroke fill markers"/><rect id="rect870" width="35.529" height="35.529" x="7.649" y="253.849" ry="5.053" style="opacity:1;fill:none;fill-opacity:.49382719;stroke:#ffffff00;stroke-width:.06184419;stroke-linecap:round;stroke-linejoin:round;stroke-miterlimit:4;stroke-dasharray:none;stroke-dashoffset:0;stroke-opacity:1;paint-order:stroke fill markers"/><circle id="path872" cx="25.4" cy="271.6" r="25.397" style="opacity:1;fill:none;fill-opacity:.49382719;stroke:#ffffff00;stroke-width:.07635882;stroke-linecap:round;stroke-linejoin:round;stroke-miterlimit:4;stroke-dasharray:none;stroke-dashoffset:0;stroke-opacity:1;paint-order:stroke fill markers"/><circle id="path876" cx="-174.09" cy="210.011" r="12.656" transform="rotate(-45)" style="opacity:1;fill:none;fill-opacity:.49382719;stroke:#ffffff00;stroke-width:.07399406;stroke-linecap:round;stroke-linejoin:round;stroke-miterlimit:4;stroke-dasharray:none;stroke-dashoffset:0;stroke-opacity:1;paint-order:stroke fill markers"/><path id="path904" d="m 25.4,271.60002 -25.40000040000004,25.4 v -50.8 z" style="opacity:1;fill:none;fill-opacity:.49382719;stroke:#ffffff00;stroke-width:.07000433;stroke-linecap:round;stroke-linejoin:round;stroke-miterlimit:4;stroke-dasharray:none;stroke-dashoffset:0;stroke-opacity:1;paint-order:stroke fill markers"/><path style="opacity:1;fill:none;fill-opacity:.49382719;stroke:#ffffff00;stroke-width:.07000433;stroke-linecap:round;stroke-linejoin:round;stroke-miterlimit:4;stroke-dasharray:none;stroke-dashoffset:0;stroke-opacity:1;paint-order:stroke fill markers" id="path906" d="m 25.399999,271.60002 25.4,-25.4 v 50.8 z"/><rect id="rect837" width="45.694" height="30.44" x="2.566" y="256.393" ry="5.051" style="opacity:1;fill:none;fill-opacity:.49382719;stroke:#ffffff00;stroke-width:.0657438;stroke-linecap:round;stroke-linejoin:round;stroke-miterlimit:4;stroke-dasharray:none;stroke-dashoffset:0;stroke-opacity:1;paint-order:stroke fill markers"/><rect style="opacity:1;fill:none;fill-opacity:.49382719;stroke:#ffffff00;stroke-width:.0657438;stroke-linecap:round;stroke-linejoin:round;stroke-miterlimit:4;stroke-dasharray:none;stroke-dashoffset:0;stroke-opacity:1;paint-order:stroke fill markers" id="rect831" width="45.694" height="30.441" x="248.766" y="-40.633" ry="5.051" transform="rotate(90)"/></g></g></g><path style="opacity:1;fill:#ffc107;fill-opacity:1;stroke:none;stroke-width:.38596651;stroke-miterlimit:4;stroke-dasharray:none;stroke-opacity:1" id="rect997" d="m 50.206421,401.67683 c 110.217209,0.71279 55.108609,0.3564 0,0 z"/><rect style="opacity:1;fill:#ffffff00;fill-opacity:0;stroke:#1de9b6;stroke-width:0;stroke-linecap:square;stroke-linejoin:miter;stroke-miterlimit:4;stroke-dasharray:none;stroke-dashoffset:0;stroke-opacity:1;paint-order:stroke fill markers" id="rect5674" width=".794" height=".794" x="-1.323" y="294.619" ry=".397"/><path style="opacity:1;fill:#232629;fill-opacity:1;stroke:#1de9b6;stroke-width:0;stroke-linecap:square;stroke-linejoin:miter;stroke-miterlimit:4;stroke-dasharray:none;stroke-dashoffset:0;stroke-opacity:1;paint-order:stroke fill markers" id="rect1954" d="M 4.9960938,3 C 3.8899304,3 3,3.8899304 3,4.9960938 V 15.003906 C 3,16.11007 3.8899304,17 4.9960938,17 H 15.003906 C 16.11007,17 17,16.11007 17,15.003906 V 4.9960938 C 17,3.8899304 16.11007,3 15.003906,3 Z M 5,4 h 10 c 0.553979,0 1,0.4460206 1,1 v 10 c 0,0.553979 -0.446021,1 -1,1 H 5 C 4.4460206,16 4,15.553979 4,15 V 5 C 4,4.4460206 4.4460206,4 5,4 Z" transform="matrix(0.26458332,0,0,0.26458332,0,291.70835)"/></g></svg>